<?xml version="1.0" standalone="no"?>
<!DOCTYPE svg PUBLIC "-//W3C//DTD SVG 20010904//EN"
 "http://www.w3.org/TR/2001/REC-SVG-20010904/DTD/svg10.dtd">
<svg version="1.0" xmlns="http://www.w3.org/2000/svg"
 width="1360.000000pt" height="1360.000000pt" viewBox="0 0 1360.000000 1360.000000"
 preserveAspectRatio="xMidYMid meet">
<metadata>
Created by potrace 1.14, written by Peter Selinger 2001-2017
</metadata>
<g transform="translate(0.000000,1360.000000) scale(0.100000,-0.100000)"
fill="#000000" stroke="none">
<path d="M10497 9794 c-1 -1 -74 -5 -162 -8 -88 -4 -180 -9 -205 -11 -25 -2
-90 -7 -145 -10 -55 -3 -113 -7 -130 -9 -16 -2 -66 -7 -110 -11 -44 -3 -93 -8
-110 -10 -16 -2 -55 -7 -86 -10 -31 -3 -65 -7 -75 -9 -11 -2 -48 -7 -84 -10
-36 -4 -76 -8 -90 -11 -14 -2 -45 -6 -70 -9 -25 -3 -57 -8 -71 -11 -14 -2 -45
-7 -70 -9 -24 -3 -44 -6 -44 -6 0 -1 -16 -4 -35 -6 -19 -3 -57 -9 -85 -15 -27
-5 -66 -12 -85 -15 -31 -5 -240 -47 -295 -59 -11 -3 -67 -17 -125 -33 l-105
-28 0 -2574 0 -2574 30 -8 c48 -14 217 -57 250 -63 27 -6 71 -15 150 -30 17
-3 37 -8 46 -11 9 -2 32 -7 50 -9 19 -3 45 -7 59 -10 14 -3 41 -8 60 -10 19
-3 46 -8 58 -11 13 -3 43 -7 65 -10 23 -3 53 -7 66 -9 13 -3 45 -7 70 -11 25
-3 57 -8 71 -10 14 -3 46 -7 72 -9 26 -3 60 -7 75 -9 16 -3 60 -8 98 -11 39
-3 81 -8 95 -10 14 -3 59 -7 100 -10 41 -3 91 -8 110 -10 44 -6 164 -16 255
-21 39 -2 115 -6 170 -10 160 -9 885 -5 885 6 0 3 15 5 33 5 32 1 146 11 202
19 17 2 55 7 85 10 46 5 184 28 305 51 78 15 267 58 330 76 38 11 75 21 80 23
113 26 389 133 543 209 171 85 358 209 429 284 12 13 24 23 27 23 5 0 49 46
114 119 75 84 177 282 187 366 0 6 5 37 9 70 10 63 11 3125 2 3185 -22 150
-64 253 -150 372 -66 93 -114 145 -201 220 -105 90 -105 90 -175 135 -36 23
-69 46 -75 50 -5 4 -23 15 -40 23 -16 8 -32 17 -35 20 -11 12 -203 101 -307
143 -98 40 -316 114 -361 122 -9 2 -18 4 -19 5 -2 2 -6 3 -10 5 -5 1 -20 5
-34 9 -14 4 -34 9 -45 11 -10 2 -19 4 -19 5 0 1 -7 3 -15 5 -154 34 -213 47
-237 50 -15 3 -50 10 -78 15 -27 5 -66 12 -85 15 -19 3 -46 7 -60 10 -35 6
-91 13 -240 29 -176 19 -351 28 -598 30 -118 0 -214 0 -215 0z m548 -858 c33
-3 80 -8 105 -10 100 -10 227 -27 262 -37 20 -5 40 -9 45 -8 4 1 20 -1 34 -5
14 -4 32 -8 40 -10 139 -27 354 -99 485 -160 258 -123 425 -283 481 -464 12
-40 15 -227 15 -1302 1 -1379 3 -1322 -59 -1428 -38 -65 -49 -78 -124 -152
-172 -168 -536 -325 -889 -385 -46 -8 -80 -14 -105 -19 -18 -3 -79 -11 -180
-22 -209 -23 -890 -23 -1075 1 -19 2 -64 7 -100 11 -105 11 -123 13 -170 19
-37 5 -161 28 -329 61 -14 3 -28 7 -33 10 -5 3 -21 8 -36 10 -36 7 -138 39
-183 57 -32 14 -35 19 -33 55 1 22 4 45 8 51 4 6 4 11 -1 11 -10 0 -10 161 1
178 4 7 4 12 -1 12 -4 0 -8 248 -8 550 0 303 4 550 8 550 5 0 5 5 1 12 -11 18
-11 141 -1 156 5 6 6 12 1 12 -5 0 -9 244 -9 550 0 303 4 550 8 550 5 0 5 5 1
12 -11 18 -11 141 -1 156 5 6 6 12 1 12 -5 0 -8 168 -7 377 2 439 0 403 12
403 5 0 22 5 38 12 15 6 33 12 38 13 9 2 80 22 110 31 31 9 215 53 240 57 109
18 165 27 200 32 22 2 49 6 60 9 11 2 58 7 105 11 47 3 101 8 120 10 19 2 91
7 160 10 69 4 126 8 127 9 5 4 585 -3 638 -8z"/>
<path d="M6121 9761 c-8 -5 -8 -136 0 -136 3 0 18 -196 24 -320 5 -92 5 -530
0 -620 -9 -182 -22 -335 -41 -490 -18 -150 -24 -195 -30 -230 -3 -16 -7 -43
-10 -60 -2 -16 -6 -41 -9 -55 -2 -14 -7 -38 -10 -55 -3 -16 -7 -41 -10 -55 -3
-14 -10 -50 -16 -80 -5 -30 -12 -66 -15 -80 -5 -26 -21 -91 -29 -122 -3 -10
-7 -27 -10 -38 -3 -11 -8 -30 -11 -42 -3 -13 -7 -30 -8 -38 -2 -14 -15 -60
-53 -190 -32 -112 -124 -383 -156 -460 -5 -14 -11 -29 -12 -35 -3 -11 -51
-123 -104 -239 -31 -70 -121 -250 -198 -398 -13 -25 -31 -52 -38 -58 -8 -7
-15 -17 -15 -22 0 -5 -21 -41 -47 -81 -27 -40 -51 -80 -55 -89 -4 -10 -12 -18
-18 -18 -5 0 -10 -5 -10 -11 0 -11 -121 -176 -159 -216 -12 -12 -21 -24 -21
-27 0 -4 -63 -77 -104 -119 -18 -19 -19 -19 -50 14 -129 138 -274 378 -369
609 -72 176 -169 497 -183 608 -2 19 -6 37 -8 41 -3 3 -7 25 -10 47 -4 22 -9
51 -11 64 -15 76 -23 126 -31 200 -3 36 -8 79 -10 95 -4 32 -10 99 -19 230 -6
79 -15 298 -18 425 l-2 65 -412 1 -411 1 -1 -81 c-2 -115 -9 -269 -16 -356 -3
-41 -8 -102 -9 -135 -4 -67 -12 -156 -26 -260 -16 -119 -20 -148 -40 -245 -6
-30 -13 -68 -16 -85 -3 -16 -9 -46 -14 -65 -5 -19 -11 -46 -14 -60 -14 -80
-87 -310 -143 -455 -33 -83 -127 -284 -156 -330 -27 -44 -82 -131 -89 -140
-46 -61 -132 -166 -155 -188 l-30 -28 -76 83 c-138 150 -291 360 -382 523
-119 213 -194 368 -270 555 -10 25 -23 59 -30 75 -20 48 -91 252 -120 345 -15
47 -33 102 -41 123 -8 20 -12 37 -9 37 2 0 0 11 -5 24 -9 25 -65 233 -74 277
-3 13 -8 35 -11 49 -3 14 -8 36 -11 50 -3 14 -12 54 -20 90 -8 36 -17 76 -19
90 -2 14 -6 35 -8 46 -3 12 -8 37 -11 55 -3 19 -8 45 -11 59 -2 14 -6 41 -9
60 -3 19 -7 51 -10 70 -17 104 -36 241 -34 247 1 5 -1 24 -5 43 -3 19 -9 67
-12 105 -3 39 -8 88 -10 110 -18 172 -27 887 -12 1035 3 36 9 103 12 150 4 47
9 89 12 93 4 7 -79 4 -220 -8 -29 -2 -89 -7 -134 -10 -46 -3 -92 -8 -104 -10
-11 -2 -50 -7 -87 -10 -37 -3 -89 -8 -117 -11 -27 -3 -63 -7 -80 -9 -67 -7
-150 -17 -169 -21 -23 -4 -71 -11 -131 -19 -22 -3 -51 -7 -65 -9 -55 -10 -167
-27 -197 -31 -18 -2 -43 -7 -55 -11 -13 -4 -32 -7 -43 -8 -20 -1 -20 -8 -21
-474 0 -260 2 -475 6 -477 4 -2 18 2 33 10 15 8 27 12 27 10 0 -2 18 2 40 10
22 8 43 14 45 14 5 -1 44 6 90 15 11 2 40 9 65 15 25 7 56 13 70 16 14 2 47 9
74 15 27 6 51 8 54 6 2 -3 6 -81 8 -173 4 -185 10 -324 19 -423 3 -36 8 -92
10 -125 6 -66 13 -131 20 -185 3 -19 7 -57 10 -85 3 -27 8 -57 10 -65 2 -8 7
-37 11 -65 9 -72 11 -84 24 -150 6 -33 13 -71 15 -85 2 -14 9 -47 15 -75 6
-27 13 -59 16 -70 13 -69 46 -212 51 -225 3 -8 8 -24 10 -34 18 -96 159 -535
216 -676 6 -14 11 -29 12 -35 3 -12 101 -244 138 -325 112 -248 317 -619 451
-815 25 -36 46 -68 46 -71 0 -2 7 -12 14 -21 8 -10 45 -60 82 -112 37 -52 73
-102 80 -110 7 -9 68 -86 135 -171 68 -85 128 -160 133 -166 6 -6 31 -35 56
-64 142 -165 462 -500 478 -500 11 0 232 233 328 345 99 117 304 383 304 395
0 6 5 10 10 10 6 0 10 7 10 15 0 8 5 15 10 15 6 0 10 7 10 15 0 8 4 15 8 15 4
0 17 14 27 31 11 17 27 42 35 54 40 61 189 304 205 335 10 19 21 37 24 40 3 3
20 32 36 65 17 33 43 82 59 110 16 27 29 55 30 60 1 6 13 31 27 54 l26 44 31
-63 c18 -35 32 -69 32 -76 0 -7 4 -14 8 -16 5 -1 24 -34 44 -73 34 -69 81
-155 122 -226 50 -85 141 -234 146 -239 3 -3 21 -30 40 -60 19 -30 43 -64 52
-74 10 -11 18 -23 18 -27 0 -4 48 -70 107 -146 94 -122 139 -178 233 -287 46
-53 145 -159 221 -237 l76 -78 141 142 c77 78 158 161 179 183 79 86 172 191
208 234 20 25 45 53 54 62 19 20 12 12 140 173 57 72 110 139 120 150 9 11 24
32 33 46 9 14 23 33 30 41 7 7 18 21 23 30 18 28 235 353 243 363 5 6 11 17
15 25 4 8 18 33 31 55 37 59 158 281 192 350 16 33 32 62 37 63 4 2 7 7 7 11
0 5 21 53 47 107 26 54 47 101 48 104 1 3 9 23 19 45 10 22 33 78 52 125 19
47 39 94 43 105 5 11 14 34 19 50 6 17 22 62 37 100 25 66 66 188 71 210 1 6
14 47 28 91 15 45 29 90 31 100 2 11 9 35 14 54 14 51 68 267 81 325 6 28 15
68 21 90 5 22 11 51 13 65 3 14 5 25 6 25 1 0 3 16 6 35 2 19 8 58 14 85 5 28
12 70 15 95 3 25 8 52 10 60 2 8 7 40 10 70 3 30 8 62 10 70 6 24 18 160 19
212 1 27 3 48 6 48 3 0 6 21 7 48 0 26 4 92 7 147 4 55 9 176 11 269 2 93 5
170 7 171 2 2 64 -12 138 -30 74 -19 137 -33 140 -33 3 0 7 -1 10 -2 6 -2 24
-6 56 -13 11 -3 44 -12 72 -21 l52 -15 0 473 0 473 -42 8 c-24 4 -47 9 -53 10
-5 2 -23 5 -40 8 -16 3 -66 12 -110 21 -93 18 -140 26 -175 31 -14 2 -38 6
-55 9 -16 3 -55 8 -85 10 -30 3 -64 7 -75 10 -11 2 -45 7 -76 10 -31 4 -65 8
-75 10 -11 2 -55 7 -99 11 -44 4 -93 9 -110 11 -42 4 -198 15 -275 20 -36 2
-82 5 -102 7 -20 2 -41 1 -47 -2z"/>
</g>
</svg>
